<?xml version="1.0" encoding="UTF-8"?><svg id="Layer_2" xmlns="http://www.w3.org/2000/svg" viewBox="0 0 306.13 99.23"><defs><style>.cls-1{fill:#3924b2;}.cls-2{fill:#1bbe55;}</style></defs><g id="Layer_1-2"><path class="cls-2" d="M12.74,64.45c.2-2.38,1.32-4.77,2.77-6.62,3.9-3.51,7.43-7.91,11.37-11.32,5.64-4.89,14.79-3.79,18.48,2.85-.87.94-2,1.75-3.24,2.13-.51.16-1.91.47-2.39.46-.27,0-1.43-.96-1.87-1.18-2.23-1.08-5.02-.95-6.96.65-3.63,2.98-6.88,7.33-10.49,10.43-4.12,5.24,2.54,11.84,7.78,7.54l7.11-7.04c.7.23,1.35.56,2.07.75,2.04.55,4.04.55,6.11.14-.35.65-.79,1.26-1.28,1.82-2.97,3.37-6.76,6.4-9.8,9.74-1.86,1.44-4.25,2.55-6.63,2.73h-2.16c-.71-.2-1.45-.26-2.16-.45-3.95-1.08-7.22-4.37-8.27-8.32-.19-.71-.25-1.45-.44-2.16.04-.7-.05-1.47,0-2.16Z"/><path class="cls-2" d="M32.74,41.23c-.13-.11,1.13-1.65,1.28-1.82,2.87-3.24,6.47-6.14,9.41-9.35,11.58-8.92,25.89,5.56,16.84,17.04-3.85,3.49-7.34,7.76-11.22,11.17-5.91,5.19-15.4,3.6-18.59-3.73.87-.71,1.9-1.52,3-1.81,2.23-.59,3.81.64,5.78,1.29,2.2.73,4,.21,5.7-1.26,3.43-2.97,6.49-6.8,9.9-9.84,4.44-5.18-1.9-11.93-7.29-8.03l-7.41,7.33c-.21.06-1.58-.54-1.97-.65-1.79-.5-3.58-.53-5.42-.34Z"/><path class="cls-1" d="M91.83.51c.21.5.23.93.11,1.45l-16.93,45.47c-.23.75-1.12,1.95-1.95,1.15-.72-.69-1.1-2.82-1.29-3.81-.95-4.97-1.57-10.01-2.54-14.97-.34-1.45-1.05-3.62-2.04-4.74-1.61-1.83-4.18-2.59-6.48-3.06-4.61-.94-9.3-1.57-13.92-2.48-1.1-.22-3.59-.62-4.3-1.49-.3-.37-.18-.74.05-1.11.05-.04.09-.1.14-.14.23-.19.57-.34.84-.48,15.01-5.09,29.87-10.65,44.89-15.7.97-.33,2.14-.91,3.12-.4l.31.31Z"/><path class="cls-1" d="M60.87,15.95H14.47C6.51,15.95,0,22.47,0,30.43v44.48c0,7.96,6.51,14.47,14.47,14.47h46.4c7.96,0,14.47-6.51,14.47-14.47V30.43c0-7.96-6.51-14.47-14.47-14.47ZM65.79,69.27c0,5.94-4.86,10.8-10.8,10.8H20.36c-5.94,0-10.8-4.86-10.8-10.8v-33.2c0-5.94,4.86-10.8,10.8-10.8h34.63c5.94,0,10.8,4.86,10.8,10.8v33.2Z"/><path class="cls-1" d="M120.36,74.71l-4.54-6.1c-1.35.27-2.66.4-3.93.4-3.33,0-6.38-.77-9.15-2.32-2.77-1.55-4.98-3.71-6.61-6.48-1.63-2.77-2.45-5.89-2.45-9.36s.81-6.57,2.45-9.33c1.63-2.76,3.83-4.91,6.61-6.46,2.77-1.55,5.83-2.32,9.15-2.32s6.38.77,9.15,2.32c2.77,1.55,4.96,3.7,6.56,6.46,1.6,2.76,2.4,5.87,2.4,9.33,0,3.03-.61,5.79-1.84,8.3-1.23,2.51-2.93,4.58-5.12,6.23l7.77,9.33h-10.44ZM105.05,58.35c1.7,1.87,3.98,2.8,6.83,2.8s5.09-.94,6.78-2.82c1.7-1.88,2.55-4.37,2.55-7.46s-.85-5.62-2.55-7.49c-1.7-1.87-3.96-2.8-6.78-2.8s-5.14.93-6.83,2.77c-1.7,1.85-2.55,4.35-2.55,7.52s.85,5.62,2.55,7.49Z"/><path class="cls-1" d="M151.08,68.66l-7.36-13.37h-2.07v13.37h-8.62v-35.41h14.48c2.79,0,5.17.49,7.14,1.46,1.97.98,3.44,2.31,4.41,4.01.98,1.7,1.46,3.59,1.46,5.67,0,2.35-.66,4.46-1.99,6.31-1.33,1.85-3.29,3.16-5.88,3.93l8.17,14.02h-9.73ZM141.65,49.19h5.35c1.58,0,2.77-.39,3.56-1.16.79-.77,1.19-1.87,1.19-3.28s-.4-2.4-1.19-3.18c-.79-.77-1.98-1.16-3.56-1.16h-5.35v8.78Z"/><path class="cls-1" d="M186.23,33.25v24.11c0,3.73-1.05,6.61-3.15,8.63-2.1,2.02-4.94,3.03-8.5,3.03s-6.73-1.06-8.98-3.18c-2.25-2.12-3.38-5.13-3.38-9.03h8.57c0,1.48.3,2.6.91,3.35.61.76,1.48,1.13,2.62,1.13,1.04,0,1.85-.34,2.42-1.01.57-.67.86-1.65.86-2.93v-24.11h8.62Z"/><path class="cls-1" d="M219.12,40.52v28.15h-8.63v-3.83c-.87,1.24-2.06,2.24-3.56,3-1.5.76-3.15,1.13-4.97,1.13-2.15,0-4.05-.48-5.7-1.44-1.65-.96-2.93-2.35-3.83-4.16-.91-1.82-1.36-3.95-1.36-6.41v-16.44h8.57v15.28c0,1.88.49,3.35,1.46,4.39.98,1.04,2.29,1.56,3.93,1.56s3.01-.52,3.98-1.56c.98-1.04,1.46-2.5,1.46-4.39v-15.28h8.63Z"/><path class="cls-1" d="M267.72,43.39c2.07,2.12,3.1,5.06,3.1,8.83v16.44h-8.58v-15.28c0-1.82-.48-3.22-1.44-4.21-.96-.99-2.28-1.49-3.96-1.49s-3,.5-3.96,1.49c-.96.99-1.44,2.4-1.44,4.21v15.28h-8.57v-15.28c0-1.82-.48-3.22-1.44-4.21-.96-.99-2.28-1.49-3.96-1.49s-3,.5-3.96,1.49c-.96.99-1.44,2.4-1.44,4.21v15.28h-8.62v-28.15h8.62v3.53c.87-1.18,2.02-2.11,3.43-2.8,1.41-.69,3.01-1.03,4.79-1.03,2.12,0,4.01.45,5.67,1.36,1.66.91,2.97,2.2,3.91,3.88.97-1.55,2.3-2.81,3.98-3.78,1.68-.98,3.51-1.46,5.5-1.46,3.5,0,6.28,1.06,8.35,3.18Z"/><path class="cls-1" d="M287.11,41.32c1.48-.81,3.21-1.21,5.2-1.21,2.32,0,4.42.59,6.31,1.77,1.88,1.18,3.37,2.86,4.46,5.04,1.09,2.19,1.64,4.73,1.64,7.62s-.55,5.44-1.64,7.64c-1.09,2.2-2.58,3.9-4.46,5.09-1.88,1.19-3.98,1.79-6.31,1.79-1.95,0-3.67-.4-5.17-1.21-1.5-.81-2.67-1.85-3.51-3.13v17.35h-8.62v-41.56h8.62v3.98c.84-1.31,2-2.37,3.48-3.18ZM294.15,49.47c-1.19-1.23-2.67-1.84-4.41-1.84s-3.17.62-4.36,1.87c-1.19,1.24-1.79,2.94-1.79,5.09s.6,3.85,1.79,5.09c1.19,1.24,2.65,1.87,4.36,1.87s3.18-.63,4.39-1.89c1.21-1.26,1.82-2.97,1.82-5.12s-.6-3.84-1.79-5.07Z"/></g></svg>